<svg width="64" height="64" viewBox="0 0 64 64" fill="none" xmlns="http://www.w3.org/2000/svg">
  <!-- EcoBoost Drive Icon: 葉子 + 速度線 -->
  <circle cx="32" cy="32" r="30" stroke="#10B981" stroke-width="2" fill="#D1FAE5"/>

  <!-- 葉子 -->
  <path d="M 28 22 Q 32 18 36 22 Q 38 26 36 30 Q 34 34 32 36 Q 30 34 28 30 Q 26 26 28 22 Z" fill="#10B981"/>
  <path d="M 32 22 L 32 36" stroke="#059669" stroke-width="1.5"/>
  <path d="M 32 26 Q 35 28 35 30" stroke="#059669" stroke-width="1" fill="none"/>
  <path d="M 32 28 Q 29 30 29 32" stroke="#059669" stroke-width="1" fill="none"/>

  <!-- 速度線條 (能源效率) -->
  <line x1="18" y1="40" x2="26" y2="40" stroke="#10B981" stroke-width="2" stroke-linecap="round"/>
  <line x1="20" y1="44" x2="30" y2="44" stroke="#10B981" stroke-width="2" stroke-linecap="round" opacity="0.7"/>
  <line x1="22" y1="48" x2="32" y2="48" stroke="#10B981" stroke-width="2" stroke-linecap="round" opacity="0.4"/>

  <!-- 箭頭 (向前) -->
  <path d="M 38 40 L 44 40 L 41 37 M 44 40 L 41 43" stroke="#10B981" stroke-width="2" stroke-linecap="round" stroke-linejoin="round"/>
</svg>
